<svg width="957" height="525" viewBox="0 0 957 525" fill="none" xmlns="http://www.w3.org/2000/svg">
<path d="M29.8084 264.988H133.723V345.882H29.8084V264.988Z" fill="#3F3D56"/>
<path d="M11.8967 264.988H106.952V345.882H11.8967V264.988Z" fill="#FFD078"/>
<path d="M11.6376 346.205H107.34V264.664H11.6376V346.205ZM106.629 345.558H12.2198V265.311H106.629V345.558Z" fill="#3F3D56"/>
<path d="M44.4869 264.988V285.163L50.4357 281.865L55.0269 284.969L60.5233 281.865L65.5673 285.163V264.988H44.4869Z" fill="#3F3D56"/>
<path d="M65.5675 304.691H87.4884V305.984H65.5675V304.691Z" fill="#3F3D56"/>
<path d="M65.5675 313.227H87.4884V314.52H65.5675V313.227Z" fill="#3F3D56"/>
<path d="M65.5675 321.762H87.4884V323.055H65.5675V321.762Z" fill="#3F3D56"/>
<path d="M23.6653 302.945H59.1655V325.125H23.6653V302.945Z" fill="#FEFEFE"/>
<path d="M23.3419 325.383H59.4888V302.557H23.3419V325.383ZM58.8421 324.737H23.9886V303.204H58.8421V324.737Z" fill="#3F3D56"/>
<path d="M130.879 360.69H103.138C101.845 360.69 100.552 361.272 99.7757 362.306L85.7436 379.959C83.4803 382.805 85.485 386.943 89.1062 386.943H130.879V360.69Z" fill="#F27B79"/>
<path d="M89.1065 387.266H131.203V360.366H103.138C101.716 360.366 100.358 361.013 99.5174 362.112L85.4853 379.765C84.386 381.188 84.1275 383.063 84.9681 384.68C85.6794 386.232 87.2959 387.266 89.1065 387.266ZM130.556 386.62H89.1065C87.5546 386.62 86.1966 385.779 85.4853 384.356C84.8386 382.934 84.9681 381.317 85.938 380.153L99.9698 362.5C100.746 361.53 101.845 361.013 103.074 361.013H130.491V386.62H130.556Z" fill="#3F3D56"/>
<path d="M413.523 249.727C413.523 252.119 411.584 253.995 409.256 253.995H395.289C392.896 253.995 391.021 252.055 391.021 249.727C391.021 247.334 392.961 245.459 395.289 245.459H409.256C411.584 245.394 413.523 247.334 413.523 249.727Z" fill="#3F3D56"/>
<path d="M360.822 254.771H378.023V279.149H360.822V254.771Z" fill="#3F3D56"/>
<path d="M405.117 435.57V293.052C405.117 280.959 395.288 271.131 383.196 271.131H319.826C307.734 271.131 297.905 280.959 297.905 293.052V424.319C297.905 435.441 288.917 444.429 277.795 444.429H260.012C248.89 444.429 239.902 435.441 239.902 424.319V366.962C239.902 366.962 240.355 349.632 251.024 347.11H141.484C141.484 347.11 95.9609 384.227 86.3907 444.041V450.637H405.117V435.57Z" fill="#FFD078"/>
<path d="M86.0673 450.96H405.44V293.052C405.44 280.766 395.482 270.807 383.196 270.807H319.826C307.54 270.807 297.582 280.766 297.582 293.052V424.319C297.582 435.247 288.723 444.106 277.795 444.106H260.012C249.084 444.106 240.225 435.247 240.225 424.319V366.962C240.225 366.768 240.743 349.891 251.153 347.434L253.869 346.787H141.419L141.355 346.852C141.225 346.916 129.78 356.357 117.364 372.911C105.854 388.236 91.1112 413.002 86.1967 443.976L86.0673 450.96ZM404.794 450.313H86.7139V444.041C91.6284 413.261 106.307 388.56 117.752 373.364C129.586 357.586 140.514 348.339 141.613 347.434H249.084C240.096 351.378 239.643 366.251 239.578 366.962V424.319C239.578 435.57 248.761 444.752 260.012 444.752H277.795C289.046 444.752 298.228 435.57 298.228 424.319V293.052C298.228 281.154 307.928 271.454 319.826 271.454H383.196C395.094 271.454 404.794 281.154 404.794 293.052V450.313Z" fill="#3F3D56"/>
<path d="M361.922 271.066H369.682V414.36H361.922V271.066Z" fill="#3F3D56"/>
<path d="M-3.05176e-05 343.618H147.95V350.99H-3.05176e-05V343.618Z" fill="#3F3D56"/>
<path d="M166.25 451.025H269.065V472.169H166.25V451.025Z" fill="#3F3D56"/>
<path d="M129.198 513.813C103.342 513.813 82.3815 489.986 82.3815 460.595C82.3815 431.203 103.342 407.377 129.198 407.377C155.054 407.377 176.014 431.203 176.014 460.595C176.014 489.986 155.054 513.813 129.198 513.813Z" fill="#2F2E41"/>
<path d="M121.309 492.862C104.488 492.862 90.8522 477.344 90.8522 458.202C90.8522 439.06 104.488 423.543 121.309 423.543C138.129 423.543 151.765 439.06 151.765 458.202C151.765 477.344 138.129 492.862 121.309 492.862Z" fill="#FEFEFE"/>
<path d="M121.309 493.185C138.315 493.185 152.089 477.472 152.089 458.202C152.089 438.932 138.251 423.219 121.309 423.219C104.367 423.219 90.5289 438.932 90.5289 458.202C90.5289 477.472 104.302 493.185 121.309 493.185ZM121.309 423.866C137.927 423.866 151.442 439.256 151.442 458.202C151.442 477.149 137.927 492.539 121.309 492.539C104.69 492.539 91.1756 477.149 91.1756 458.202C91.1756 439.256 104.69 423.866 121.309 423.866Z" fill="#3F3D56"/>
<path d="M137.41 458.396C137.41 466.091 133.789 472.946 122.214 472.946C115.424 472.946 112.902 466.091 112.902 458.396C112.902 450.701 115.489 444.429 122.214 444.429C133.789 444.429 137.41 450.637 137.41 458.396Z" fill="#3F3D56"/>
<path d="M121.439 472.364C114.653 472.364 109.152 466.11 109.152 458.396C109.152 450.682 114.653 444.429 121.439 444.429C128.224 444.429 133.725 450.682 133.725 458.396C133.725 466.11 128.224 472.364 121.439 472.364Z" fill="#FEFEFE"/>
<path d="M121.438 472.622C128.357 472.622 134.048 466.22 134.048 458.332C134.048 450.443 128.422 444.041 121.438 444.041C114.455 444.041 108.829 450.443 108.829 458.332C108.829 466.22 114.519 472.622 121.438 472.622ZM121.438 444.752C128.034 444.752 133.401 450.895 133.401 458.396C133.401 465.897 128.034 472.04 121.438 472.04C114.843 472.04 109.476 465.897 109.476 458.396C109.476 450.895 114.843 444.752 121.438 444.752Z" fill="#3F3D56"/>
<path d="M392.961 513.813C367.105 513.813 346.144 489.986 346.144 460.595C346.144 431.203 367.105 407.377 392.961 407.377C418.817 407.377 439.777 431.203 439.777 460.595C439.777 489.986 418.817 513.813 392.961 513.813Z" fill="#2F2E41"/>
<path d="M385.071 492.862C368.251 492.862 354.615 477.344 354.615 458.202C354.615 439.06 368.251 423.543 385.071 423.543C401.892 423.543 415.528 439.06 415.528 458.202C415.528 477.344 401.892 492.862 385.071 492.862Z" fill="#FEFEFE"/>
<path d="M385.071 493.185C402.078 493.185 415.851 477.472 415.851 458.202C415.851 438.932 402.013 423.219 385.071 423.219C368.13 423.219 354.292 438.932 354.292 458.202C354.292 477.472 368.065 493.185 385.071 493.185ZM385.071 423.866C401.69 423.866 415.205 439.256 415.205 458.202C415.205 477.149 401.69 492.539 385.071 492.539C368.453 492.539 354.938 477.149 354.938 458.202C354.938 439.256 368.453 423.866 385.071 423.866Z" fill="#3F3D56"/>
<path d="M401.173 458.396C401.173 466.091 397.552 472.364 385.977 472.364C379.187 472.364 376.665 466.091 376.665 458.396C376.665 450.701 379.252 444.429 385.977 444.429C397.552 444.429 401.173 450.637 401.173 458.396Z" fill="#3F3D56"/>
<path d="M385.201 472.364C378.416 472.364 372.915 466.11 372.915 458.396C372.915 450.682 378.416 444.429 385.201 444.429C391.987 444.429 397.487 450.682 397.487 458.396C397.487 466.11 391.987 472.364 385.201 472.364Z" fill="#FEFEFE"/>
<path d="M385.201 472.622C392.12 472.622 397.81 466.22 397.81 458.332C397.81 450.443 392.185 444.041 385.201 444.041C378.217 444.041 372.592 450.443 372.592 458.332C372.592 466.22 378.282 472.622 385.201 472.622ZM385.201 444.752C391.797 444.752 397.164 450.895 397.164 458.396C397.164 465.897 391.797 472.04 385.201 472.04C378.605 472.04 373.238 465.897 373.238 458.396C373.238 450.895 378.67 444.752 385.201 444.752Z" fill="#3F3D56"/>
<path d="M43.131 444.235H49.0801C49.8561 438.092 55.0936 433.371 61.4306 433.371H193.603V458.331H61.4306C55.4169 458.331 50.3732 454.064 49.2093 448.373H43.131V444.235Z" fill="#3F3D56"/>
<path d="M66.6035 450.637C66.6035 450.637 58.3914 384.809 135.276 366.897C163.017 360.431 226.71 356.228 212.42 450.637H66.6035Z" fill="#FFD078"/>
<path d="M66.2803 450.96H212.614L212.679 450.701C217.981 415.589 213.002 390.629 197.871 376.662C179.377 359.526 150.602 363.018 135.147 366.639C117.559 370.712 103.009 377.696 91.8224 387.331C82.8988 395.026 76.1094 404.467 71.7123 415.395C64.2113 433.953 66.1513 450.507 66.2159 450.701L66.2803 450.96ZM212.097 450.313H66.8625C66.6686 448.05 65.44 432.66 72.3589 415.589C79.2133 398.647 95.7024 376.468 135.276 367.221C150.602 363.664 179.118 360.172 197.418 377.114C212.42 390.952 217.334 415.589 212.097 450.313Z" fill="#3F3D56"/>
<path d="M243.782 350.99H147.368C137.346 350.99 129.198 342.842 129.198 332.82C129.198 322.215 138.251 313.873 148.791 314.714L244.881 322.344C252.317 322.926 258.072 329.134 258.072 336.635C258.072 344.524 251.671 350.99 243.782 350.99Z" fill="#3F3D56"/>
<path d="M342.588 443.33H452.774C452.774 443.33 450.963 427.099 440.035 412.356C416.11 380.347 366.384 384.745 348.795 420.568C345.627 426.905 343.428 434.406 342.588 443.33Z" fill="#FFD078"/>
<path d="M342.2 443.653H453.098L453.033 443.265C453.033 443.071 451.093 426.776 440.23 412.162C428.913 396.966 410.808 388.948 391.797 390.693C372.915 392.439 356.749 403.562 348.407 420.439C345.109 427.228 342.976 434.859 342.2 443.265V443.653ZM452.386 443.006H342.976C343.752 434.859 345.821 427.358 349.054 420.762C357.266 404.079 373.238 393.086 391.926 391.405C410.678 389.659 428.59 397.612 439.777 412.614C449.606 425.87 451.998 440.549 452.386 443.006Z" fill="#3F3D56"/>
<path d="M65.8277 454.904H349.248V446.369H452.645V438.609H349.054C344.851 438.609 341.488 442.036 341.488 446.175V447.145H65.8277V454.904Z" fill="#3F3D56"/>
<path d="M264.668 496.742H283.615V488.982H267.319L230.849 461.177L226.193 467.32L264.668 496.742Z" fill="#3F3D56"/>
<path d="M360.241 262.854H383.843C385.265 262.854 386.688 262.66 387.981 262.336C395.482 260.461 401.043 253.671 401.043 245.589C401.043 240.803 399.104 236.536 396 233.432C393.801 231.233 391.085 229.681 387.981 228.905C386.623 228.582 385.265 228.388 383.778 228.388H380.351C368.518 228.388 357.202 234.272 351.059 244.425C350.735 244.942 350.412 245.524 350.089 246.106C346.144 253.736 351.64 262.854 360.241 262.854Z" fill="#FFD078"/>
<path d="M360.241 263.177H383.843C385.265 263.177 386.688 262.983 388.111 262.66C395.935 260.72 401.431 253.736 401.431 245.588C401.431 240.868 399.621 236.471 396.258 233.173C393.995 230.91 391.15 229.293 388.111 228.517C386.688 228.194 385.265 228 383.843 228H380.416C368.259 228 356.943 234.208 350.864 244.231C350.541 244.813 350.218 245.33 349.894 245.912C347.955 249.533 348.019 253.865 350.153 257.422C352.352 261.043 356.102 263.177 360.241 263.177ZM383.843 228.711C385.201 228.711 386.624 228.905 387.917 229.229C390.891 229.94 393.607 231.492 395.806 233.69C398.974 236.859 400.785 241.127 400.785 245.653C400.785 253.477 395.482 260.202 387.981 262.078C386.623 262.401 385.265 262.595 383.908 262.595H360.305C356.361 262.595 352.804 260.59 350.8 257.163C348.795 253.801 348.666 249.727 350.541 246.3C350.864 245.718 351.188 245.201 351.511 244.619C357.46 234.79 368.582 228.711 380.48 228.711H383.843Z" fill="#3F3D56"/>
<path d="M376.148 245.653C376.148 252.508 379.122 258.651 383.843 262.918H383.908C393.413 262.918 401.173 255.223 401.173 245.653C401.173 240.868 399.233 236.6 396.129 233.496C393.025 230.393 388.693 228.453 383.972 228.453H383.908C379.058 232.656 376.148 238.799 376.148 245.653Z" fill="#3F3D56"/>
<path d="M380.867 245.653C380.867 252.249 383.583 258.133 387.98 262.401C395.481 260.526 401.042 253.736 401.042 245.653C401.042 240.868 399.103 236.6 395.999 233.497C393.8 231.298 391.084 229.746 387.98 228.97C383.583 233.109 380.867 239.058 380.867 245.653Z" fill="#FEFEFE"/>
<path d="M387.917 262.724L388.111 262.66C395.935 260.72 401.432 253.736 401.432 245.589C401.432 240.868 399.621 236.471 396.258 233.173C393.995 230.91 391.15 229.293 388.111 228.517L387.917 228.453L387.787 228.582C383.132 233.044 380.545 239.057 380.545 245.524C380.545 251.99 383.132 258.004 387.787 262.466L387.917 262.724ZM388.111 229.293C391.021 230.069 393.672 231.557 395.806 233.69C398.974 236.859 400.785 241.127 400.785 245.653C400.785 253.413 395.612 260.073 388.111 262.013C383.649 257.681 381.192 251.861 381.192 245.653C381.192 239.381 383.649 233.626 388.111 229.293Z" fill="#3F3D56"/>
<path d="M337.026 247.14H349.765V252.378H337.026V247.14Z" fill="#FFD078"/>
<path d="M336.768 252.766H350.153V246.882H336.768V252.766ZM349.442 252.119H337.35V247.528H349.442V252.119Z" fill="#3F3D56"/>
<path d="M354.55 245.395H349.442C347.049 245.395 345.174 247.334 345.174 249.662C345.174 252.055 347.114 253.93 349.442 253.93H354.55C356.943 253.93 358.818 251.99 358.818 249.662C358.818 247.334 356.943 245.395 354.55 245.395Z" fill="#3F3D56"/>
<path d="M339.484 249.727C339.484 252.119 337.544 253.995 335.216 253.995H321.249C318.856 253.995 316.981 252.055 316.981 249.727C316.981 247.334 318.921 245.459 321.249 245.459H335.216C337.544 245.394 339.484 247.334 339.484 249.727Z" fill="#3F3D56"/>
<path d="M108.699 434.083H171.811V437.704H108.699V434.083Z" fill="white"/>
<path d="M108.376 438.027H172.134V433.759H108.376V438.027ZM171.488 437.381H109.023V434.406H171.488V437.381Z" fill="black"/>
<path d="M108.699 424.513H171.811V428.134H108.699V424.513Z" fill="white"/>
<path d="M108.376 428.457H172.134V424.189H108.376V428.457ZM171.488 427.81H109.023V424.836H171.488V427.81Z" fill="black"/>
<path d="M108.699 415.007H171.811V418.628H108.699V415.007Z" fill="white"/>
<path d="M108.376 418.951H172.134V414.684H108.376V418.951ZM171.488 418.305H109.023V415.33H171.488V418.305Z" fill="black"/>
<path d="M204.79 496.677H337.35V497.97H204.79V496.677Z" fill="#3F3D56"/>
<path d="M463 523.417H878V524.417H463V523.417Z" fill="#3F3D56"/>
<path d="M555.546 516.383H606.109C606.109 516.383 602.918 505.493 580.515 496.546L580.585 494.049L580.793 480.524H556.864L556.448 492.454L555.546 516.383Z" fill="#3F3D56"/>
<path d="M555.13 516.729H606.525L606.387 516.313C606.248 515.897 602.918 505.216 580.793 496.338L581.001 480.247H556.379L555.13 516.729ZM605.624 516.036H555.893L557.142 480.871H580.377L580.169 496.754L580.377 496.823C599.798 504.661 604.722 513.955 605.624 516.036Z" fill="#3F3D56"/>
<path d="M489.655 516.383H540.218C540.218 516.383 537.027 505.493 514.624 496.546L514.832 494.881L516.774 480.524H492.845L491.736 493.009L489.655 516.383Z" fill="#3F3D56"/>
<path d="M489.239 516.729H540.703L540.565 516.313C540.426 515.897 537.097 505.216 514.971 496.338L517.121 480.177H492.499L489.239 516.729ZM539.732 516.036H490.002L493.123 480.871H516.358L514.208 496.754L514.486 496.823C533.976 504.661 538.831 513.955 539.732 516.036Z" fill="#3F3D56"/>
<path d="M788.315 516.383H838.878L835.618 491.067L834.3 480.524H810.372L813.215 493.494L813.909 499.32C790.396 506.534 788.315 516.383 788.315 516.383Z" fill="#3F3D56"/>
<path d="M787.899 516.729H839.294L834.647 480.177H809.956L812.938 493.564L813.562 499.043C790.396 506.187 788.038 515.897 787.969 516.313L787.899 516.729ZM838.531 516.036H788.801C789.564 514.094 793.795 505.84 814.048 499.667L814.325 499.598L813.632 493.494L810.857 480.94H834.023L838.531 516.036Z" fill="#3F3D56"/>
<path d="M730.054 516.383H780.616L779.368 491.483L778.813 480.524H754.884L755.509 493.841L755.647 498.557C733.244 507.574 730.054 516.383 730.054 516.383Z" fill="#3F3D56"/>
<path d="M729.568 516.729H781.032L779.16 480.177H754.537L755.231 493.91L755.37 498.419C733.244 507.297 729.915 515.966 729.776 516.313L729.568 516.729ZM780.269 516.036H730.608C731.649 514.094 736.781 506.534 755.786 498.904L755.994 498.835L755.855 493.841L755.231 480.871H778.466L780.269 516.036Z" fill="#3F3D56"/>
<path d="M595.289 19.494L560.124 11.5871L556.309 24.9734C555.338 24.2798 554.367 23.8637 553.465 23.8637C549.304 23.8637 548.472 28.8575 548.472 28.8575C547.292 34.2675 550.83 37.5968 552.425 39.955L540.356 78.588L570.25 83.2351L572.816 58.5432C598.549 71.5134 595.289 19.494 595.289 19.494Z" fill="#FFAC71"/>
<path d="M570.597 83.5125L573.163 58.9593C578.226 61.3869 582.596 61.5256 586.064 59.2368C597.578 51.6073 595.774 20.7425 595.705 19.4247V19.1472L559.916 11.1016L556.17 24.2798C555.269 23.6556 554.367 23.3781 553.535 23.3781C549.165 23.3781 548.194 28.58 548.194 28.6494C547.154 33.3658 549.581 36.487 551.315 38.7758C551.593 39.1226 551.87 39.4694 552.078 39.8162L539.94 78.6573L570.597 83.5125ZM572.539 57.9189L569.973 82.7495L540.842 78.1718L552.841 39.8162L552.772 39.6775C552.494 39.3307 552.217 38.9146 551.87 38.4984C550.206 36.2789 547.917 33.2965 548.888 28.9268C548.957 28.7188 549.72 24.2104 553.535 24.2104C554.367 24.2104 555.269 24.5572 556.17 25.2508L556.586 25.5282L560.471 12.0032L595.081 19.7714C595.219 22.8232 596.399 51.6766 585.717 58.6819C582.388 60.9014 578.088 60.6933 573.094 58.1964L572.539 57.9189Z" fill="#3F3D56"/>
<path d="M605.832 4.37379C604.236 4.027 600.214 4.37379 597.786 6.3852C597.925 6.10777 598.063 5.83034 598.202 5.55291C601.809 -5.26711 586.619 2.77854 578.574 4.37379C576.909 4.72059 573.233 5.20611 573.233 5.20611C549.165 -0.273256 551.593 24.2799 551.593 24.2799C557.905 23.3782 559.777 31.9787 559.777 31.9787C566.228 28.9269 568.239 24.5573 568.447 22.6846C574.689 25.5283 590.712 30.9383 603.959 21.3668C613.045 14.7777 609.854 5.13674 605.832 4.37379Z" fill="#2F2E41"/>
<path d="M745.521 107.233C745.521 107.233 755.3 88.9919 756.133 79.9059L752.041 59.9304C752.041 59.9304 751.555 40.7873 776.732 45.4344C776.732 45.4344 776.594 36.4177 782.559 34.2676C782.559 34.2676 779.645 39.3308 780.686 44.3246C780.686 44.3246 785.541 33.2272 794.696 39.0534C794.696 39.0534 801.771 42.9375 799.898 50.0121C799.898 50.0121 800.037 58.0577 789.009 58.1965C789.009 58.1965 789.147 68.2535 813.493 81.9173C813.493 81.9173 833.746 91.6275 832.081 112.782C830.416 133.937 811.551 147.254 811.551 147.254L742.192 147.323L745.521 107.233Z" fill="#2F2E41"/>
<path d="M784.015 115.002L781.033 80.114C781.033 80.114 786.235 77.0622 784.917 71.0973C784.917 71.0973 783.668 66.3115 778.883 69.9875L778.744 61.5257C778.744 61.5257 761.959 67.8374 752.179 58.3352C752.179 58.3352 745.105 91.3501 760.017 91.2808L756.827 119.024L784.015 115.002Z" fill="#FFAC71"/>
<path d="M756.48 119.441L784.431 115.348L781.449 80.322C782.42 79.6978 786.512 76.5766 785.333 71.0279C785.333 70.9586 784.778 68.9471 783.113 68.3923C782.004 68.0455 780.755 68.3229 779.299 69.2939L779.16 61.0402L778.674 61.1789C778.536 61.2483 762.028 67.2825 752.456 58.0578L752.041 57.6416L751.902 58.2659C751.694 59.1675 747.185 80.6688 753.705 88.6451C755.231 90.5178 757.243 91.4889 759.67 91.5582L756.48 119.441ZM783.668 114.724L757.312 118.608L760.502 90.934H760.086C757.658 90.934 755.716 90.0323 754.26 88.229C748.572 81.2237 751.832 62.6355 752.526 59.0288C761.473 67.0744 775.761 62.9129 778.536 62.0112L778.674 70.6811L779.229 70.265C780.686 69.1552 781.934 68.7391 782.905 69.0859C784.223 69.502 784.708 71.236 784.708 71.236C785.957 76.9234 781.171 79.7672 780.963 79.9059L780.755 80.0446V80.2527L783.668 114.724Z" fill="#2F2E41"/>
<path d="M556.379 492.523L580.515 494.049L580.724 480.524H556.795L556.379 492.523Z" fill="#3F3D56"/>
<path d="M491.736 493.009L514.833 494.881L516.775 480.524H492.846L491.736 493.009Z" fill="#3F3D56"/>
<path d="M526.208 201.423L527.179 206.694L533.074 239.224L548.333 322.871L549.235 350.476L553.882 488.778H594.249L598.757 323.703L592.376 231.664L590.226 201.423H526.208Z" fill="#CDCBCC"/>
<path d="M553.535 489.125H594.596V488.778L599.104 323.703L590.573 201.076H525.791L547.986 322.94L553.535 489.125ZM593.902 488.431H554.159L548.61 322.871L526.554 201.77H589.81L598.41 323.772L593.902 488.431Z" fill="#3F3D56"/>
<path d="M810.371 480.524L813.285 493.494L835.688 491.066L834.3 480.524H810.371Z" fill="#3F3D56"/>
<path d="M754.884 480.524L755.509 493.91L779.368 491.483L778.813 480.524H754.884Z" fill="#3F3D56"/>
<path d="M485.147 489.471H525.93L549.235 350.476L554.437 319.333L563.315 239.016L566.852 206.694H500.614L500.892 232.218L501.863 316.42L485.147 489.471Z" fill="#CDCBCC"/>
<path d="M484.8 489.818H526.277L526.346 489.541L554.853 319.403L567.337 206.347H500.336L501.585 316.42L484.8 489.818ZM525.653 489.124H485.563L502.209 316.49L500.961 207.041H566.505L554.09 319.264L525.653 489.124Z" fill="#3F3D56"/>
<path d="M735.602 302.549L746.284 488.778H783.183L781.934 370.729L781.172 303.381L786.512 240.958L788.593 216.058L757.659 215.572L740.18 215.225L738.724 243.177L735.602 302.549Z" fill="#3F3D56"/>
<path d="M746.006 489.125H783.53V488.778L781.518 303.381L789.009 215.711L739.903 214.879L735.256 302.549L746.006 489.125ZM782.836 488.431H746.631L735.949 302.549L740.527 215.572L788.246 216.405L780.825 303.381L782.836 488.431Z" fill="#3F3D56"/>
<path d="M500.614 206.694L500.891 232.218C512.405 236.033 523.225 238.253 533.074 239.224C544.379 240.403 554.575 240.056 563.314 238.946C576.423 237.351 586.411 234.022 592.306 231.594L590.226 201.354H526.207L527.178 206.625H500.614V206.694Z" fill="#3F3D56"/>
<path d="M757.243 212.659L757.659 215.572L761.612 244.356L772.085 320.235L781.934 370.728L804.684 487.668L838.462 488.362L822.926 316.559L818.625 226.808L817.862 210.995L757.243 212.659Z" fill="#3F3D56"/>
<path d="M838.878 488.708V488.292L823.342 316.49L818.209 210.578L756.896 212.243L771.739 320.304L804.407 488.015L838.878 488.708ZM817.516 211.341L822.579 316.559L838.115 487.945L804.962 487.252L772.432 320.096L757.659 212.937L817.516 211.341Z" fill="#3F3D56"/>
<path d="M743.093 112.227L716.182 147.253L678.589 154.606V181.656L722.632 177.494C725.684 177.217 728.528 176.107 731.025 174.373L748.642 161.888L743.093 112.227Z" fill="#CDCBCC"/>
<path d="M678.242 182.072L722.702 177.841C725.753 177.563 728.736 176.454 731.302 174.65L749.127 162.027L743.44 111.325L716.043 146.907L678.312 154.328V182.072H678.242ZM748.364 161.75L730.886 174.165C728.459 175.899 725.615 176.939 722.632 177.217L678.936 181.378V154.952L716.39 147.6L716.459 147.531L742.885 113.198L748.364 161.75Z" fill="#3F3D56"/>
<path d="M571.984 74.357C571.984 74.357 566.782 86.6336 543.408 62.4272L503.319 77.2007C497.631 79.6977 493.609 84.8996 492.568 91.0032L486.256 126.654H508.174L498.048 221.953C498.048 221.953 527.595 229.791 550.206 230.276C587.521 231.109 595.774 224.45 595.774 224.45L594.11 190.603L593.832 113.614C594.249 102.656 589.671 94.4018 583.151 85.5238L571.984 74.357Z" fill="#FFD078"/>
<path d="M556.448 230.692C588.145 230.692 595.636 224.936 595.913 224.728L596.052 224.589L594.387 190.534L594.11 113.545C594.526 102.794 590.087 94.4018 583.359 85.2464L571.846 73.7328L571.638 74.2183C571.568 74.2877 570.597 76.4378 567.684 76.9927C563.869 77.6863 556.656 75.6748 543.617 62.1498L543.478 62.0111L543.27 62.0805L503.18 76.8539C497.354 79.4202 493.262 84.6915 492.221 90.9338L485.84 127.001H507.758L497.631 222.231L497.909 222.3C498.186 222.369 527.733 230.138 550.136 230.692C552.286 230.692 554.437 230.692 556.448 230.692ZM595.358 224.242C594.11 225.074 584.33 230.692 550.136 229.929C529.051 229.444 501.515 222.439 498.394 221.676L508.521 126.238H486.673L492.915 91.0032C493.955 84.969 497.839 79.9057 503.457 77.4782L543.339 62.8434C556.517 76.4378 564.008 78.4492 567.892 77.6863C570.389 77.2008 571.637 75.6749 572.123 74.9119L582.943 85.6626C589.74 94.9567 593.902 102.933 593.486 113.545L593.763 190.534L595.358 224.242Z" fill="#3F3D56"/>
<path d="M595.913 110.146H706.541V196.29H595.913V110.146Z" fill="#3F3D56"/>
<path d="M576.84 110.146H678.034V196.29H576.84V110.146Z" fill="#FEFEFE"/>
<path d="M576.493 196.637H678.381V109.8H576.493V196.637ZM677.688 195.944H577.186V110.493H677.688V195.944Z" fill="#3F3D56"/>
<path d="M611.519 110.146V131.648L617.831 128.18L622.686 131.44L628.512 128.18L633.922 131.648V110.146H611.519Z" fill="#3F3D56"/>
<path d="M633.852 152.456H657.227V153.843H633.852V152.456Z" fill="#3F3D56"/>
<path d="M633.852 161.542H657.227V162.929H633.852V161.542Z" fill="#3F3D56"/>
<path d="M633.852 170.628H657.227V172.015H633.852V170.628Z" fill="#3F3D56"/>
<path d="M589.324 150.583H627.125V174.165H589.324V150.583Z" fill="#FEFEFE"/>
<path d="M588.977 174.512H627.472V150.236H588.977V174.512ZM626.778 173.818H589.671V150.93H626.778V173.818Z" fill="#3F3D56"/>
<path d="M738.724 243.177C744.55 244.009 752.526 244.703 761.612 244.356C769.242 244.079 777.703 243.108 786.442 240.958C797.054 238.322 808.083 233.883 818.556 226.808L817.793 210.995L757.243 212.659L757.658 215.572L740.18 215.295L738.724 243.177Z" fill="#3F3D56"/>
<path d="M678.242 199.134C678.867 200.174 679.699 201.007 680.67 201.7C681.641 202.394 682.751 202.879 683.93 203.088L689.409 204.336C692.947 205.099 696.553 205.515 700.16 205.515H704.946C706.333 205.515 707.72 205.168 708.899 204.475L714.032 201.631L719.442 201.007L739.556 198.579V183.112L722.632 185.748L714.795 186.996L697.802 182.28C697.802 182.28 694.819 188.453 704.114 191.574L695.097 196.013H679.976C678.381 195.874 677.341 197.747 678.242 199.134Z" fill="#E78D4C"/>
<path d="M700.229 205.793H705.015C706.472 205.793 707.928 205.446 709.177 204.683L714.24 201.908L739.972 198.787V182.627L714.864 186.58L697.663 181.794L697.524 182.072C697.455 182.141 696.415 184.361 697.524 186.858C698.357 188.869 700.299 190.464 703.281 191.574L695.097 195.597H680.046C679.144 195.597 678.312 196.082 677.896 196.845C677.479 197.608 677.479 198.579 677.965 199.342C678.659 200.383 679.491 201.284 680.462 201.978C681.502 202.671 682.612 203.157 683.791 203.434L689.271 204.683C692.947 205.446 696.553 205.793 700.229 205.793ZM739.278 198.232L713.962 201.284L708.83 204.128C707.651 204.752 706.333 205.099 705.015 205.099H700.229C696.623 205.099 693.016 204.683 689.548 203.92L684.069 202.671C682.959 202.394 681.919 201.978 680.948 201.284C680.046 200.66 679.213 199.828 678.589 198.857C678.242 198.302 678.243 197.608 678.52 197.053C678.797 196.498 679.422 196.152 680.046 196.152H695.235L705.084 191.297L704.252 191.019C701.061 189.979 698.981 188.383 698.149 186.441C697.386 184.707 697.802 183.112 698.079 182.488L714.864 187.135L739.278 183.32V198.232Z" fill="#3F3D56"/>
<path d="M610.27 57.1561H678.867V110.563H610.27V57.1561Z" fill="#3F3D56"/>
<path d="M598.479 57.156H661.18V110.563H598.479V57.156Z" fill="#FFD078"/>
<path d="M598.132 110.909H661.527V56.8093H598.132V110.909ZM660.833 110.216H598.826V57.5029H660.833V110.216Z" fill="#3F3D56"/>
<path d="M619.912 57.1561V70.473L623.865 68.3229L626.917 70.3343L630.523 68.3229L633.853 70.473V57.1561H619.912Z" fill="#3F3D56"/>
<path d="M633.783 83.0966H648.279V84.4837H633.783V83.0966Z" fill="#3F3D56"/>
<path d="M633.783 88.7145H648.279V90.1017H633.783V88.7145Z" fill="#3F3D56"/>
<path d="M633.783 94.4019H648.279V95.7891H633.783V94.4019Z" fill="#3F3D56"/>
<path d="M606.178 82.1947H629.622V96.8295H606.178V82.1947Z" fill="#FEFEFE"/>
<path d="M605.831 97.1763H629.969V81.848H605.831V97.1763ZM629.275 96.4827H606.525V82.5416H629.275V96.4827Z" fill="#3F3D56"/>
<path d="M719.511 200.937L739.625 198.51V183.043L722.702 185.678L719.511 200.937Z" fill="#3F3D56"/>
<path d="M725.615 184.153L738.308 181.725L740.388 119.441C740.527 115.487 742.331 111.742 745.382 109.175L758.352 98.3554C758.352 98.3554 760.849 114.239 785.056 98.3554L807.459 106.401C813.77 108.69 818.556 114.031 820.082 120.55L834.231 189.285C835.549 195.666 830.833 201.7 824.313 201.909L817.585 202.117L820.845 224.034C820.845 224.034 797.748 233.952 774.028 235.409C746.7 237.143 737.753 230.623 738.1 229.722L739.487 206.417L725.615 206.972V184.153Z" fill="#CDCBCC"/>
<path d="M765.15 236.172C767.855 236.172 770.837 236.102 774.027 235.894C797.54 234.438 820.706 224.589 820.984 224.45L821.261 224.311L821.192 224.034L818.001 202.533L824.382 202.325C827.573 202.186 830.555 200.729 832.566 198.163C834.578 195.666 835.341 192.406 834.647 189.285L820.498 120.55C818.903 113.822 814.117 108.482 807.597 106.124L785.055 98.0085L784.917 98.0779C775.553 104.251 768.132 106.401 763.416 104.32C759.462 102.586 758.768 98.3553 758.768 98.3553L758.699 97.7311L745.313 108.967C742.192 111.603 740.319 115.418 740.18 119.51L738.099 181.517L725.407 183.944V207.527L739.278 206.972L737.891 229.86C737.822 230.068 737.891 230.207 738.03 230.415C738.862 231.733 746.145 236.172 765.15 236.172ZM820.428 223.895C817.862 224.936 796.083 233.744 773.958 235.131C747.81 236.796 738.862 230.831 738.446 229.86V229.791L739.833 206.07L725.892 206.625V184.361L738.585 181.933L740.666 119.371C740.804 115.487 742.608 111.88 745.521 109.383L758.005 98.9102C758.352 100.228 759.531 103.349 762.93 104.806C767.924 107.025 775.276 104.944 784.986 98.6327L807.25 106.609C813.493 108.829 818.14 114.03 819.666 120.55L833.815 189.285C834.439 192.198 833.676 195.25 831.873 197.608C830 199.966 827.226 201.354 824.243 201.492L817.099 201.7L820.428 223.895Z" fill="#3F3D56"/>
<path d="M817.527 201.725L817.567 202.417L738.901 206.933L738.861 206.241L817.527 201.725Z" fill="#3F3D56"/>
<path d="M738.03 182.072L797.887 169.726L792.477 139.901L791.783 140.04L797.124 169.171L737.891 181.448L738.03 182.072Z" fill="#3F3D56"/>
<path d="M482.996 170.489C482.372 177.494 486.742 184.014 493.47 186.095L564.355 208.151L571.082 210.509C573.649 211.411 576.423 211.688 579.128 211.341L592.723 209.677C593.555 209.538 594.457 209.33 595.22 209.053L611.103 203.226C613.114 202.463 614.918 201.076 616.097 199.273L616.305 198.926C617.137 197.678 616.236 196.013 614.71 196.013H589.185C596.607 191.297 596.052 187.135 596.052 187.135L580.377 189.285L568.933 190.672L514.902 164.316L521.144 133.174L522.393 126.862H486.464L486.118 130.538L482.996 170.489Z" fill="#FFAC71"/>
<path d="M576.978 211.827C577.741 211.827 578.504 211.758 579.198 211.688L592.792 210.024C593.694 209.885 594.595 209.677 595.358 209.399L611.242 203.573C613.392 202.81 615.126 201.423 616.374 199.481L616.582 199.134C617.067 198.441 617.068 197.539 616.651 196.845C616.235 196.082 615.542 195.666 614.64 195.666H590.295C596.815 191.158 596.399 187.274 596.329 187.066L596.26 186.719L580.238 188.869L568.863 190.187L515.179 164.038L522.739 126.376H486.117L482.372 170.42C481.748 177.633 486.187 184.222 493.123 186.372L564.008 208.428L570.736 210.786C572.886 211.48 574.966 211.827 576.978 211.827ZM614.848 196.36C615.403 196.36 615.958 196.637 616.235 197.192C616.513 197.678 616.513 198.302 616.166 198.787L615.958 199.134C614.779 200.868 613.114 202.186 611.172 202.949L595.289 208.775C594.526 209.053 593.694 209.261 592.861 209.399L579.267 211.064C576.631 211.411 573.857 211.133 571.36 210.232L564.632 207.873L493.747 185.817C487.158 183.736 482.927 177.494 483.482 170.558L487.158 127.139H522.323L514.832 164.455L515.04 164.593L569.14 190.95L580.724 189.563L595.983 187.482C595.913 188.522 595.15 191.921 589.255 195.666L588.284 196.29H614.848V196.36Z" fill="#3F3D56"/>
<path d="M525.707 111.829L526.382 111.99L522.545 127.975L521.871 127.813L525.707 111.829Z" fill="#3F3D56"/>
<path d="M486.395 130.399L521.283 133.104L522.601 126.723H486.673L486.395 130.399Z" fill="#3F3D56"/>
<path d="M673.275 312.638C671.452 312.637 669.647 312.996 667.962 313.693C666.278 314.39 664.747 315.412 663.458 316.701C662.168 317.99 661.145 319.521 660.447 321.205C659.749 322.889 659.389 324.695 659.389 326.518C659.389 322.836 657.926 319.304 655.323 316.7C652.719 314.096 649.188 312.633 645.507 312.633C649.188 312.633 652.719 311.17 655.323 308.566C657.926 305.962 659.389 302.43 659.389 298.748C659.389 302.43 660.851 305.962 663.454 308.566C666.058 311.17 669.589 312.633 673.27 312.633L673.275 312.638Z" fill="#555185"/>
<path d="M710.049 400.385C713.177 400.385 715.712 397.849 715.712 394.72C715.712 391.592 713.177 389.055 710.049 389.055C706.922 389.055 704.386 391.592 704.386 394.72C704.386 397.849 706.922 400.385 710.049 400.385Z" fill="#FFD078"/>
<path d="M477.676 335.845C480.803 335.845 483.339 333.309 483.339 330.181C483.339 327.052 480.803 324.516 477.676 324.516C474.548 324.516 472.013 327.052 472.013 330.181C472.013 333.309 474.548 335.845 477.676 335.845Z" fill="#FFD078"/>
<path d="M671.168 243.471C675.164 243.471 678.403 240.231 678.403 236.234C678.403 232.237 675.164 228.996 671.168 228.996C667.171 228.996 663.932 232.237 663.932 236.234C663.932 240.231 667.171 243.471 671.168 243.471Z" fill="#FFD078"/>
<path d="M274.765 394.362C271.746 394.362 268.851 395.561 266.717 397.696C264.582 399.832 263.383 402.727 263.383 405.747C263.383 402.727 262.183 399.832 260.049 397.696C257.914 395.561 255.019 394.362 252 394.362C255.019 394.362 257.914 393.162 260.049 391.027C262.183 388.892 263.383 385.996 263.383 382.976C263.383 385.996 264.582 388.892 266.717 391.027C268.851 393.162 271.746 394.362 274.765 394.362Z" fill="#555185"/>
<path d="M341.322 386.888C343.408 386.888 345.099 385.197 345.099 383.11C345.099 381.024 343.408 379.332 341.322 379.332C339.236 379.332 337.545 381.024 337.545 383.11C337.545 385.197 339.236 386.888 341.322 386.888Z" fill="#FFD078"/>
<path d="M448.225 196.824C446.402 196.823 444.597 197.182 442.913 197.879C441.228 198.576 439.698 199.598 438.408 200.887C437.119 202.176 436.096 203.707 435.397 205.391C434.699 207.075 434.34 208.881 434.339 210.704C434.339 207.022 432.876 203.49 430.273 200.886C427.67 198.282 424.139 196.819 420.457 196.819C424.139 196.819 427.67 195.356 430.273 192.752C432.876 190.148 434.339 186.616 434.339 182.934C434.339 186.616 435.802 190.148 438.405 192.752C441.008 195.356 444.539 196.819 448.221 196.819L448.225 196.824Z" fill="#555185"/>
<path d="M429.006 108.817L429.014 108.817L429.021 108.817C430.85 108.759 432.672 109.07 434.379 109.73C436.085 110.39 437.642 111.387 438.956 112.66C440.27 113.934 441.315 115.459 442.028 117.144C442.742 118.83 443.109 120.641 443.109 122.472C443.109 124.302 442.742 126.113 442.028 127.799C441.315 129.484 440.27 131.009 438.956 132.283C437.642 133.556 436.085 134.553 434.379 135.213C432.672 135.873 430.85 136.184 429.021 136.126L429.014 136.126H429.006L371.312 136.126L371.309 136.126C369.6 136.136 367.912 135.738 366.388 134.964C364.864 134.19 363.546 133.063 362.545 131.677C361.544 130.29 360.888 128.685 360.633 126.994C360.378 125.303 360.53 123.576 361.077 121.956C361.624 120.336 362.55 118.87 363.777 117.68C365.005 116.49 366.5 115.611 368.136 115.116C369.772 114.62 371.503 114.523 373.184 114.832C374.866 115.141 376.449 115.847 377.802 116.891L378.781 117.647L378.603 116.424C377.729 110.425 379.25 104.323 382.836 99.4372C386.423 94.5509 391.788 91.2722 397.771 90.3093C403.754 89.3464 409.876 90.7767 414.814 94.2911C419.752 97.8056 423.109 103.122 424.161 109.092L424.26 109.658L424.807 109.481C426.163 109.041 427.58 108.817 429.006 108.817Z" fill="white" stroke="black"/>
<path d="M441.79 516.072C443.876 516.072 445.567 514.381 445.567 512.294C445.567 510.208 443.876 508.516 441.79 508.516C439.704 508.516 438.013 510.208 438.013 512.294C438.013 514.381 439.704 516.072 441.79 516.072Z" fill="#FFD078"/>
<path d="M942.944 323.238L943.045 323.797L943.587 323.625C944.526 323.326 945.506 323.176 946.491 323.18C948.936 323.273 951.25 324.309 952.949 326.071C954.649 327.835 955.6 330.19 955.601 332.64C955.602 335.091 954.654 337.447 952.955 339.212C951.258 340.976 948.945 342.014 946.501 342.109H905.89C904.717 342.109 903.56 341.83 902.516 341.294C901.472 340.758 900.571 339.981 899.886 339.027C899.202 338.074 898.755 336.971 898.581 335.81C898.407 334.649 898.513 333.463 898.888 332.351C899.264 331.239 899.898 330.232 900.74 329.414C901.581 328.596 902.606 327.991 903.728 327.647C904.85 327.303 906.038 327.232 907.193 327.439C908.348 327.646 909.437 328.125 910.37 328.836L911.339 329.574L911.169 328.369C910.579 324.195 911.65 319.956 914.15 316.563C916.651 313.17 920.381 310.894 924.542 310.222C928.702 309.55 932.959 310.537 936.4 312.971C939.841 315.404 942.19 319.091 942.944 323.238Z" fill="white" stroke="black"/>
</svg>
