<svg width="23" height="23" viewBox="0 0 23 23" fill="none" xmlns="http://www.w3.org/2000/svg">
<path fill-rule="evenodd" clip-rule="evenodd" d="M16.0032 14.4583L21.9209 20.3762C22.1289 20.5844 22.2457 20.8666 22.2456 21.1609C22.2455 21.4551 22.1285 21.7373 21.9204 21.9453C21.7122 22.1533 21.43 22.2701 21.1357 22.27C20.8415 22.2699 20.5593 22.1529 20.3513 21.9448L14.4336 16.0269C12.6645 17.3971 10.44 18.0419 8.21239 17.8301C5.98483 17.6184 3.92161 16.5659 2.44245 14.8869C0.963296 13.2079 0.179317 11.0284 0.250001 8.79185C0.320685 6.55531 1.24072 4.42969 2.82295 2.84743C4.40518 1.26516 6.53074 0.345101 8.76723 0.274415C11.0037 0.203729 13.1831 0.987728 14.8621 2.46692C16.5411 3.94611 17.5935 6.00939 17.8053 8.23701C18.0171 10.4646 17.3723 12.6893 16.0021 14.4583H16.0032ZM9.04601 15.6694C10.7964 15.6694 12.475 14.9741 13.7127 13.7364C14.9504 12.4986 15.6457 10.8199 15.6457 9.06955C15.6457 7.31916 14.9504 5.64046 13.7127 4.40274C12.475 3.16503 10.7964 2.46969 9.04601 2.46969C7.29567 2.46969 5.61701 3.16503 4.37933 4.40274C3.14164 5.64046 2.44632 7.31916 2.44632 9.06955C2.44632 10.8199 3.14164 12.4986 4.37933 13.7364C5.61701 14.9741 7.29567 15.6694 9.04601 15.6694Z" fill="#FFAF0F"/>
</svg>
